# xmcd
#
# Track frame offsets:
#       150
#       12798
#       25210
#       36639
#       50601
#       60967
#       74898
#       86298
#       96312
#       107976
#       120562
#       139525
#       149709
#       166357
#       175352
#       184474
#       192596
#       204184
#       217280
#       226442
#       238677
#       251321
#       264776
#       277729
#       290453
#
# Disc length: 3992 seconds
#
# Revision: 1
# Processed by: cddbd v1.5.1PL0 Copyright (c) Steve Scherf et al.
# Submitted via: MusiCat 1.1
#
DISCID=7c0f9619
DTITLE=Jacinto Luis Cortez - Temas inesquecíveis
DYEAR=1900
DGENRE=
TTITLE0=Catito
TTITLE1=Cerejeira rosa
TTITLE2=Risque
TTITLE3=Roberta
TTITLE4=Quizas Quizas
TTITLE5=Bessa-me mucho
TTITLE6=Perfídia
TTITLE7=Nunca aos domingos
TTITLE8=Saudade
TTITLE9=Encosta tua cabecinha
TTITLE10=Maria Helena
TTITLE11=Beijinho doce
TTITLE12=Sonhar contigo
TTITLE13=Quero beijar tuas mãos
TTITLE14=Gente humilde
TTITLE15=Lampião de gás
TTITLE16=Normalista
TTITLE17=Boneca cobiçada
TTITLE18=Fascinação
TTITLE19=Dizem que os homens
TTITLE20=El dia que me quieras
TTITLE21=La barca
TTITLE22=Al di la
TTITLE23=Fica comigo esta noite
TTITLE24=Estranhos no paraíso-Part. Maurício Vanzela
EXTD=\n\n
EXTT0=
EXTT1=
EXTT2=
EXTT3=
EXTT4=
EXTT5=
EXTT6=
EXTT7=
EXTT8=
EXTT9=
EXTT10=
EXTT11=
EXTT12=
EXTT13=
EXTT14=
EXTT15=
EXTT16=
EXTT17=
EXTT18=
EXTT19=
EXTT20=
EXTT21=
EXTT22=
EXTT23=
EXTT24=
PLAYORDER=
